# xmcd CD database file
#
# Track frame offsets:
#	150
#	13560
#	27562
#	39052
#	50227
#	60485
#	86497
#	97330
#	112777
#	127305
#	137405
#	148400
#	158200
#	173080
#	183720
#	195615
#
# Disc length: 2791 seconds
#
# Revision: 3
# Processed by: cddbd v1.4PL0 Copyright (c) Steve Scherf et al.
# Submitted via: CDex 1.40Release
#
DISCID=e40ae510
DTITLE=35-Various Artists - Country and Western Classics - Volume One
DYEAR=1900
DGENRE=Country
TTITLE0=Johnny Tillotson - I'm so lonely, I could cry
TTITLE1=Roger Whittaker - Summer in the country (live)
TTITLE2=Patsy Cline - Walkin' after midnight
TTITLE3=Rex Allen jr. - Dream on texas ladies
TTITLE4=Loretta Lynn - Out of my head, back in my bead (live)
TTITLE5=Brenda Lee - Medley (live)  a) Jambalaya  b) Is it true  c) My whole world is falling down  d) Sweet nothin's  e) End of the world  f) All alone am I
TTITLE6=Billie Jo Spears - All I have to do is dream
TTITLE7=Tom Simmons - Achy breaky heart
TTITLE8=B J Thomas - Hooked on a feeling
TTITLE9=Willie Nelson - Healing hands of time
TTITLE10=Guy Mitchell - Singing the blues
TTITLE11=Jimmy Gilmer - Sugar shack
TTITLE12=Bille Jo Spears - Crystal chandeliers
TTITLE13=Oh lonesome me - Don Gibson
TTITLE14=Take these chains from my heart - Roy Drusky
TTITLE15=Crazy love - Barbara Fairchild
EXTD=ID3G: 2
EXTT0=
EXTT1=
EXTT2=
EXTT3=
EXTT4=
EXTT5=
EXTT6=
EXTT7=
EXTT8=
EXTT9=
EXTT10=
EXTT11=
EXTT12=
EXTT13=
EXTT14=
EXTT15=
PLAYORDER=
